# xmcd
#
# Track frame offsets:
#	150
#	18915
#	31275
#	46800
#	61947
#	75942
#	93122
#	106209
#	122185
#	138710
#	154541
#	170185
#	187135
#	202063
#	220808
#	237642
#	253875
#	268479
#	284921
#	301925
#	319227
#
# Disc length: 4435 seconds
#
# Revision: 1
# Processed by: cddbd v1.5.2PL0 Copyright (c) Steve Scherf et al.
# Submitted via: audiograbber 1.83.01
#
DISCID=3e115115
DTITLE=Various Artist - Winners 2014
DYEAR=2014
DGENRE=Country
TTITLE0=Kaylens Rain - Waiting On A Bus
TTITLE1=Sara Storer - Lovegrass
TTITLE2=Lee Kernaghan - Flying With The King
TTITLE3=Luke Austin - Let's Just Go With It
TTITLE4=Dianna Corcoran - Therapy
TTITLE5=The Sunny Cowgirls - Green And Gold
TTITLE6=Pete Denahy - Cotton Eyed Joe
TTITLE7=Adam Eckersley Band - Long Enough To Disappear
TTITLE8=Ashleigh Dallas - Me
TTITLE9=Luke O'Shea - Lady Of The Land
TTITLE10=Jasmine Rae - If I Want To
TTITLE11=O'Shea - Thank You Angels (Album Version)
TTITLE12=Lachlan Bryan and The Wiilds - Black Coffee
TTITLE13=The Wolfe Brothers - The Girl, The Bottle, The Memory
TTITLE14=Aleyce Simmonds - Believe
TTITLE15=The McClymonts - Two Worlds Collide
TTITLE16=Troy Casser-Daley and Adam Harvey - Lights On The Hill (Album Version)
TTITLE17=Kaylee Bell - Heart First
TTITLE18=Doug Bruce - Thank God I'm A Cowboy
TTITLE19=Jeff Brown - I Love Australia
TTITLE20=The Greencards - Black, Black Water
EXTD=Featuring finalists from the 42nd Country Music Awards of Australia (CMAA)
EXTT0=
EXTT1=
EXTT2=
EXTT3=
EXTT4=
EXTT5=
EXTT6=
EXTT7=
EXTT8=
EXTT9=
EXTT10=
EXTT11=
EXTT12=
EXTT13=
EXTT14=
EXTT15=
EXTT16=
EXTT17=
EXTT18=
EXTT19=
EXTT20=
PLAYORDER=
